<svg xmlns="http://www.w3.org/2000/svg" width="48" height="48" style="shape-rendering:geometricPrecision;text-rendering:geometricPrecision;image-rendering:optimizeQuality;fill-rule:evenodd;clip-rule:evenodd"><path style="opacity:1" fill="#ff4a00" d="M12.5 19.5a26.695 26.695 0 0 0-7-5c2.081-5.562 6.081-9.062 12-10.5 7.467-1.666 14.133-.166 20 4.5a38.9 38.9 0 0 1-5 5.5c-4.179-1.227-8.512-1.56-13-1-3.515 1.018-5.848 3.185-7 6.5z"/><path style="opacity:.935" fill="#fdbf07" d="M5.5 14.5a26.695 26.695 0 0 1 7 5v8a40.945 40.945 0 0 1-7 5c-1.49-2.686-2.157-5.686-2-9-.157-3.314.51-6.314 2-9z"/><path style="opacity:1" fill="#2977cd" d="m39.5 35.5-3 2c-2-1.333-3.667-3-5-5l2-4a25.87 25.87 0 0 0-10-1v-8h20a50.441 50.441 0 0 1-.5 10c-.424 2.525-1.59 4.525-3.5 6z"/><path style="opacity:1" fill="#5daf4b" d="M12.5 27.5c4.648 7.227 10.98 8.894 19 5 1.333 2 3 3.667 5 5 0 .667.333 1 1 1-9.1 6.474-18.433 6.64-28 .5-1.732-1.972-3.065-4.139-4-6.5a40.945 40.945 0 0 0 7-5z"/><path style="opacity:.086" fill="#709783" d="M39.5 35.5c.073 1.527-.594 2.527-2 3-.667 0-1-.333-1-1l3-2z"/></svg>