<svg xmlns="http://www.w3.org/2000/svg" width="48" height="48" style="shape-rendering:geometricPrecision;text-rendering:geometricPrecision;image-rendering:optimizeQuality;fill-rule:evenodd;clip-rule:evenodd"><path style="opacity:.973" fill="#2cb6f6" d="M17.5 3.5c20.819-1.03 28.986 8.636 24.5 29-6.453 10.486-15.62 13.653-27.5 9.5C4.014 35.547.847 26.38 5 14.5c2.708-5.42 6.875-9.087 12.5-11z"/><path style="opacity:1" fill="#f8fcfe" d="m22.5 30.5-2-3a119.854 119.854 0 0 1 9-9.5 145.065 145.065 0 0 0-14 7.5 42.618 42.618 0 0 1-5-1.5c-1.333-.667-1.333-1.333 0-2 7.698-2.854 15.365-5.687 23-8.5a198.088 198.088 0 0 1-5 21 17.908 17.908 0 0 0-6-4z"/><path style="opacity:1" fill="#d1dbdf" d="M20.5 27.5c-1.478.948-2.478 2.28-3 4a31.705 31.705 0 0 0-2-6 145.065 145.065 0 0 1 14-7.5 119.854 119.854 0 0 0-9 9.5z"/><path style="opacity:1" fill="#a3c5d5" d="m20.5 27.5 2 3c-1.294.79-2.46 1.79-3.5 3-.717-.544-1.217-1.21-1.5-2 .522-1.72 1.522-3.052 3-4z"/></svg>