<svg width="32px" height="32px" version="1.1" viewBox="0 0 32 32" xmlns="http://www.w3.org/2000/svg"> <g id="surface1"> <path d="m16 0c8.8359 0 16 7.1641 16 16s-7.1641 16-16 16-16-7.1641-16-16 7.1641-16 16-16z" fill="#7188d9"/> <path d="m24.023 10.52c-1.4688-1.1758-3.2266-1.7617-5.0859-1.8594l-0.29688 0.29297c1.6641 0.39062 3.1328 1.1758 4.5039 2.25-1.6641-0.87891-3.5234-1.4648-5.4805-1.6602-0.58594-0.097657-1.0781-0.097657-1.6641-0.097657s-1.0781 0-1.6641 0.097657c-1.957 0.19531-3.8164 0.78125-5.4805 1.6602 1.3711-1.0742 2.8398-1.8594 4.5039-2.25l-0.29688-0.29297c-1.8594 0.097656-3.6172 0.68359-5.0859 1.8594-1.6641 3.1328-2.5469 6.6562-2.6445 10.277 1.4688 1.5625 3.5234 2.543 5.6758 2.543 0 0 0.6875-0.78516 1.1758-1.4688-1.2734-0.29297-2.4453-0.97656-3.2305-2.0547 0.6875 0.39062 1.3711 0.78125 2.0547 1.0781 0.88281 0.39062 1.7617 0.58594 2.6445 0.78125 0.78125 0.097657 1.5664 0.19531 2.3477 0.19531s1.5664-0.097656 2.3477-0.19531c0.88281-0.19531 1.7617-0.39062 2.6445-0.78125 0.68359-0.29688 1.3672-0.6875 2.0547-1.0781-0.78516 1.0781-1.957 1.7617-3.2305 2.0547 0.48828 0.68359 1.1758 1.4688 1.1758 1.4688 2.1523 0 4.207-0.98047 5.6758-2.543-0.097657-3.6211-0.98047-7.1445-2.6445-10.277zm-11.254 8.5156c-0.97656 0-1.8594-0.88281-1.8594-1.957 0-1.0781 0.88281-1.957 1.8594-1.957 0.98047 0 1.8594 0.87891 1.8594 1.957 0 1.0742-0.87891 1.957-1.8594 1.957zm6.4609 0c-0.98047 0-1.8594-0.88281-1.8594-1.957 0-1.0781 0.87891-1.957 1.8594-1.957 0.97656 0 1.8594 0.87891 1.8594 1.957 0 1.0742-0.88281 1.957-1.8594 1.957z" fill="#fff"/> </g>
</svg>