<svg xmlns="http://www.w3.org/2000/svg" width="32" height="32"><path style="stroke:none;fill-rule:nonzero;fill:#000;fill-opacity:1" d="M14.535 2.8c-6.137.665-11.07 5.598-11.734 11.598C2 21.066 6.133 26.801 12 28.668v-3.066s-.535.132-1.2.132c-1.866 0-2.667-1.601-2.8-2.535-.133-.531-.398-.933-.8-1.332-.4-.133-.532-.133-.532-.265 0-.27.398-.27.531-.27.801 0 1.469.934 1.735 1.336C9.602 23.734 10.398 24 10.8 24A2.67 2.67 0 0 0 12 23.734c.133-.933.535-1.867 1.332-2.402C10.266 20.668 8 18.934 8 16c0-1.465.668-2.934 1.602-4-.137-.266-.27-.934-.27-1.867 0-.531 0-1.332.402-2.133 0 0 1.868 0 3.73 1.734.669-.27 1.602-.402 2.536-.402.934 0 1.867.133 2.668.402C20.398 8 22.398 8 22.398 8c.27.8.27 1.602.27 2.133 0 1.066-.133 1.601-.27 1.867.934 1.066 1.602 2.398 1.602 4 0 2.934-2.266 4.668-5.332 5.332C19.465 22 20 23.199 20 24.398v4.403c5.465-1.735 9.332-6.801 9.332-12.668 0-8-6.797-14.266-14.797-13.332zm0 0"/></svg>