<svg width="32px" height="32px" version="1.1" viewBox="0 0 32 32" xmlns="http://www.w3.org/2000/svg"> <g id="surface1"> <path d="m29.074 13.387h-1.0742v-0.054688h-12v5.3359h7.5352c-1.0977 3.1016-4.0547 5.332-7.5352 5.332-4.418 0-8-3.582-8-8s3.582-8 8-8c2.0391 0 3.8945 0.76953 5.3086 2.0273l3.7695-3.7734c-2.3789-2.2188-5.5664-3.5859-9.0781-3.5859-7.3633 0-13.332 5.9688-13.332 13.332s5.9688 13.332 13.332 13.332 13.332-5.9688 13.332-13.332c0-0.89453-0.089843-1.7656-0.25781-2.6133z" fill="#ffc106"/> <path d="m4.2031 9.793 4.3828 3.2148c1.1836-2.9375 4.0547-5.0078 7.4141-5.0078 2.0391 0 3.8945 0.76953 5.3086 2.0273l3.7695-3.7734c-2.3789-2.2188-5.5664-3.5859-9.0781-3.5859-5.1211 0-9.5625 2.8906-11.797 7.125z" fill="#ff3d00"/> <path d="m16 29.332c3.4453 0 6.5742-1.3164 8.9375-3.4609l-4.125-3.4922c-1.3398 1.0156-3.0039 1.6211-4.8125 1.6211-3.4688 0-6.4141-2.2109-7.5234-5.2969l-4.3477 3.3477c2.207 4.3203 6.6875 7.2812 11.871 7.2812z" fill="#4caf4f"/> <path d="m29.074 13.387h-1.0742v-0.054688h-12v5.3359h7.5352c-0.52734 1.4883-1.4883 2.7773-2.7227 3.7109l4.125 3.4922c-0.28906 0.26562 4.3945-3.2031 4.3945-9.8711 0-0.89453-0.089843-1.7656-0.25781-2.6133z" fill="#1976d1"/> </g>
</svg>