<svg width="32px" height="32px" version="1.1" viewBox="0 0 32 32" xmlns="http://www.w3.org/2000/svg"> <g id="surface1"> <path d="m16 2.668c-7.3633 0-13.332 5.9688-13.332 13.332s5.9688 13.332 13.332 13.332 13.332-5.9688 13.332-13.332-5.9688-13.332-13.332-13.332z" fill="#28b5f5"/> <path d="m22.633 10-2.4961 12.75s-0.10938 0.58203-0.83203 0.58203c-0.38281 0-0.58203-0.17969-0.58203-0.17969l-5.4062-4.4922-2.6484-1.332-3.3984-0.90234s-0.60156-0.17578-0.60156-0.67578c0-0.41797 0.62109-0.61719 0.62109-0.61719l14.211-5.6445s0.43359-0.15625 0.75-0.15625c0.19531 0 0.41797 0.085938 0.41797 0.33594 0 0.16406-0.035157 0.33203-0.035157 0.33203z" fill="#fff"/> <path d="m15.332 20.336-2.2812 2.25s-0.10156 0.078124-0.23438 0.078124c-0.046875 0.003907-0.09375-0.003906-0.14453-0.027343l0.64062-3.9766z" fill="#b0bec5"/> <path d="m19.93 12.129c-0.10938-0.14453-0.32031-0.17188-0.46484-0.058594l-8.7969 5.2617s1.4023 3.9297 1.6172 4.6094c0.21484 0.67969 0.38672 0.69531 0.38672 0.69531l0.64062-3.9766 6.5547-6.0625c0.14844-0.11328 0.17578-0.32031 0.0625-0.46875z" fill="#cfd7dc"/> </g>
</svg>