<svg width="300" height="111" viewBox="0 0 415 154" xmlns="http://www.w3.org/2000/svg"> <defs> <clipPath id="p"> <path d="m271 8h89v86h-89z"/> </clipPath> <clipPath id="a"> <path d="m271 8h89v86h-89z"/> </clipPath> <clipPath id="c"> <path d="m224.68 42.414 107.6-81.172 74.457 98.906-107.6 81.168z"/> </clipPath> <clipPath id="d"> <path d="m353.19 22.473c-12.903-17.141-40.243-18.301-61.063-2.594-20.824 15.71-27.246 42.336-14.344 59.473 12.903 17.14 40.242 18.3 61.067 2.593 20.82-15.71 27.242-42.336 14.34-59.472z"/> </clipPath> <clipPath id="e"> <path d="m254.64 49.016 75.349-56.836 46.766 62.125-75.344 56.836z"/> </clipPath> <clipPath id="f"> <path d="m271 8h89v86h-89z"/> </clipPath> <clipPath id="g"> <path d="m353.19 22.473c-12.903-17.141-40.243-18.301-61.063-2.594-20.824 15.71-27.246 42.336-14.344 59.473 12.903 17.14 40.242 18.3 61.067 2.593 20.82-15.71 27.242-42.336 14.34-59.472z"/> </clipPath> <clipPath id="h"> <path d="m224.68 42.414 107.6-81.172 74.457 98.906-107.6 81.168z"/> </clipPath> <clipPath id="i"> <path d="m353.19 22.473c-12.903-17.141-40.243-18.301-61.063-2.594-20.824 15.71-27.246 42.336-14.344 59.473 12.903 17.14 40.242 18.3 61.067 2.593 20.82-15.71 27.242-42.336 14.34-59.472z"/> </clipPath> <clipPath id="j"> <path d="m265.38 86.324 26.004-90.781 74.699 21.441-26.004 90.782z"/> </clipPath> <clipPath id="k"> <path d="m271 8h89v86h-89z"/> </clipPath> <clipPath id="l"> <path d="m353.19 22.473c-12.903-17.141-40.243-18.301-61.063-2.594-20.824 15.71-27.246 42.336-14.344 59.473 12.903 17.14 40.242 18.3 61.067 2.593 20.82-15.71 27.242-42.336 14.34-59.472z"/> </clipPath> <clipPath id="m"> <path d="m224.68 42.414 107.6-81.172 74.457 98.906-107.6 81.168z"/> </clipPath> <clipPath id="n"> <path d="m353.19 22.473c-12.903-17.141-40.243-18.301-61.063-2.594-20.824 15.71-27.246 42.336-14.344 59.473 12.903 17.14 40.242 18.3 61.067 2.593 20.82-15.71 27.242-42.336 14.34-59.472z"/> </clipPath> <clipPath id="o"> <path d="m254.64 49.016 75.349-56.836 46.766 62.125-75.344 56.836z"/> </clipPath> <clipPath id="b"> <path d="m353.19 22.473c-12.903-17.141-40.243-18.301-61.063-2.594-20.824 15.71-27.246 42.336-14.344 59.473 12.903 17.14 40.242 18.3 61.067 2.593 20.82-15.71 27.242-42.336 14.34-59.472z"/> </clipPath> <clipPath id="q"> <path d="m353.19 22.473c-12.903-17.141-40.243-18.301-61.063-2.594-20.824 15.71-27.246 42.336-14.344 59.473 12.903 17.14 40.242 18.3 61.067 2.593 20.82-15.71 27.242-42.336 14.34-59.472z"/> </clipPath> <clipPath id="r"> <path d="m224.68 42.414 107.6-81.172 74.457 98.906-107.6 81.168z"/> </clipPath> <clipPath id="s"> <path d="m353.19 22.473c-12.903-17.141-40.243-18.301-61.063-2.594-20.824 15.71-27.246 42.336-14.344 59.473 12.903 17.14 40.242 18.3 61.067 2.593 20.82-15.71 27.242-42.336 14.34-59.472z"/> </clipPath> <clipPath id="t"> <path d="m265.38 86.324 26.004-90.781 74.699 21.441-26.004 90.782z"/> </clipPath> <clipPath id="u"> <path d="m271 8h89v86h-89z"/> </clipPath> <clipPath id="v"> <path d="m353.19 22.473c-12.903-17.141-40.243-18.301-61.063-2.594-20.824 15.71-27.246 42.336-14.344 59.473 12.903 17.14 40.242 18.3 61.067 2.593 20.82-15.71 27.242-42.336 14.34-59.472z"/> </clipPath> <clipPath id="w"> <path d="m224.68 42.414 107.6-81.172 74.457 98.906-107.6 81.168z"/> </clipPath> <clipPath id="x"> <path d="m353.19 22.473c-12.903-17.141-40.243-18.301-61.063-2.594-20.824 15.71-27.246 42.336-14.344 59.473 12.903 17.14 40.242 18.3 61.067 2.593 20.82-15.71 27.242-42.336 14.34-59.472z"/> </clipPath> <clipPath id="y"> <path d="m271 8h89v86h-89z"/> </clipPath> <clipPath id="z"> <path d="m353.19 22.473c-12.903-17.141-40.243-18.301-61.063-2.594-20.824 15.71-27.246 42.336-14.344 59.473 12.903 17.14 40.242 18.3 61.067 2.593 20.82-15.71 27.242-42.336 14.34-59.472z"/> </clipPath> <clipPath id="A"> <path d="m224.68 42.414 107.6-81.172 74.457 98.906-107.6 81.168z"/> </clipPath> <clipPath id="B"> <path d="m293 26h48v49h-48z"/> </clipPath> <clipPath id="C"> <path d="m353.19 22.473c-12.903-17.141-40.243-18.301-61.063-2.594-20.824 15.71-27.246 42.336-14.344 59.473 12.903 17.14 40.242 18.3 61.067 2.593 20.82-15.71 27.242-42.336 14.34-59.472z"/> </clipPath> <clipPath id="D"> <path d="m224.68 42.414 107.6-81.172 74.457 98.906-107.6 81.168z"/> </clipPath> </defs> <path d="m214.246 51.008 19.707-1.274c.45 3.223 1.274 5.625 2.621 7.352 2.176 2.7 5.172 4.05 9.145 4.05 2.922 0 5.242-.675 6.816-2.1a6.039 6.039 0 0 0 2.399-4.802c0-1.8-.825-3.527-2.246-4.652-1.5-1.348-5.024-2.7-10.567-3.898-9.066-2.028-15.586-4.727-19.41-8.176-3.82-3.227-5.992-7.953-5.844-12.98 0-3.45 1.051-6.9 2.996-9.75 2.25-3.227 5.32-5.778 8.992-7.2 3.973-1.726 9.52-2.629 16.489-2.629 8.543 0 15.062 1.578 19.558 4.801 4.496 3.152 7.192 8.254 8.016 15.23l-19.484 1.125c-.524-3-1.57-5.175-3.297-6.601-1.723-1.426-3.969-2.102-6.89-2.102-2.4 0-4.2.528-5.4 1.5-1.12.903-1.87 2.25-1.796 3.75 0 1.125.597 2.176 1.5 2.852.972.898 3.297 1.726 6.969 2.476 9.066 1.95 15.511 3.899 19.48 5.926 3.973 2.024 6.82 4.5 8.543 7.426 1.8 3 2.7 6.45 2.625 9.977 0 4.199-1.2 8.402-3.598 11.925a22.756 22.756 0 0 1-9.968 8.254c-4.27 1.875-9.664 2.848-16.11 2.848-11.39 0-19.258-2.176-23.68-6.602-4.421-4.425-7.042-9.976-7.566-16.726ZM5.098 73.21V6.152h34.547c6.37 0 11.316.524 14.687 1.649a15.532 15.532 0 0 1 8.168 6.152c2.172 3.227 3.223 6.977 3.148 10.875.223 6.602-3.148 12.902-8.918 16.203a22.8 22.8 0 0 1-7.27 2.625c1.876.528 3.747 1.426 5.395 2.477 1.274 1.05 2.325 2.25 3.297 3.523a23.42 23.42 0 0 1 2.922 4.203l10.043 19.426H47.586L36.496 52.66c-1.422-2.629-2.621-4.351-3.746-5.176-1.5-1.05-3.297-1.578-5.094-1.578h-1.8v27.23H5.097Zm20.757-39.906h8.77a33.208 33.208 0 0 0 5.469-.899 5.256 5.256 0 0 0 3.37-2.101c2.024-2.7 1.727-6.528-.75-8.852-1.347-1.125-3.968-1.726-7.714-1.726h-9.145ZM.38 130.672l19.707-1.277c.45 3.226 1.273 5.628 2.621 7.351 2.102 2.703 5.172 4.125 9.145 4.125 2.921 0 5.246-.672 6.82-2.098 1.496-1.199 2.394-2.925 2.394-4.8 0-1.801-.824-3.528-2.246-4.653-1.5-1.347-5.02-2.699-10.64-3.898-9.067-2.027-15.586-4.727-19.41-8.18-3.82-3.222-5.993-7.949-5.844-12.976 0-3.45 1.05-6.899 2.996-9.75 2.25-3.227 5.32-5.778 8.992-7.204 3.973-1.722 9.52-2.624 16.488-2.624 8.543 0 15.063 1.578 19.559 4.8 4.496 3.227 7.117 8.254 7.941 15.23l-19.484 1.126c-.523-3.004-1.57-5.176-3.297-6.602-1.648-1.426-3.969-2.101-6.894-2.027-2.395 0-4.196.527-5.395 1.578-1.2.898-1.871 2.25-1.797 3.75 0 1.125.598 2.176 1.5 2.848.973.902 3.297 1.726 6.969 2.476 9.066 1.95 15.512 3.903 19.48 5.926 3.973 2.027 6.82 4.5 8.543 7.426 1.801 3 2.7 6.453 2.7 9.902 0 4.2-1.274 8.328-3.598 11.852a22.71 22.71 0 0 1-9.965 8.25c-4.273 1.879-9.668 2.851-16.113 2.851-11.39 0-19.258-2.176-23.68-6.601-4.422-4.5-6.894-10.051-7.492-16.801Zm0 0" fill="#000"/> <path d="m100.04 125.42 18.133 5.473c-0.973 4.578-2.996 8.93-5.77 12.753-2.547 3.375-5.918 6-9.742 7.727-3.894 1.727-8.84 2.625-14.836 2.625-7.27 0-13.266-1.05-17.836-3.152-4.644-2.098-8.617-5.848-11.988-11.176-3.371-5.324-5.02-12.152-5.02-20.477 0-11.101 2.922-19.652 8.84-25.582 5.922-5.925 14.239-8.925 25.031-8.925 8.465 0 15.06 1.726 19.93 5.101 4.797 3.45 8.395 8.703 10.793 15.754l-18.285 4.05c-0.45-1.577-1.125-3.152-2.023-4.5-1.125-1.577-2.547-2.777-4.27-3.675-1.727-0.902-3.672-1.277-5.621-1.277-4.723 0-8.32 1.875-10.793 5.703-1.871 2.773-2.848 7.199-2.848 13.199 0 7.426 1.125 12.527 3.375 15.305 2.246 2.773 5.395 4.125 9.516 4.125 3.973 0 6.969-1.125 8.992-3.301 2.024-2.324 3.524-5.55 4.422-9.75zm42.34-39.61h20.68v23.481h22.632v-23.48h20.832v67.062h-20.832v-27.156h-22.632v27.156h-20.68z" fill="#000"/> <path d="M203.68 119.344c0-10.95 3.07-19.504 9.14-25.578 6.07-6.079 14.614-9.153 25.477-9.153 11.168 0 19.71 3 25.781 9 6.067 6.004 9.067 14.403 9.067 25.207 0 7.875-1.352 14.25-3.973 19.278-2.547 4.949-6.52 9-11.39 11.703-5.02 2.773-11.239 4.199-18.66 4.199-7.567 0-13.786-1.2-18.731-3.602-5.098-2.55-9.293-6.523-12.067-11.402-3.074-5.25-4.644-11.777-4.644-19.652Zm20.68.074c0 6.754 1.273 11.629 3.745 14.629 2.477 2.926 5.922 4.426 10.27 4.426 4.418 0 7.867-1.426 10.34-4.352 2.472-2.926 3.672-8.101 3.672-15.601 0-6.301-1.274-10.954-3.82-13.801-2.551-2.926-5.997-4.352-10.344-4.352-3.82-.152-7.493 1.5-10.04 4.426-2.55 2.926-3.824 7.8-3.824 14.625Zm69.992-.074c0-10.95 3.07-19.504 9.14-25.578 6.07-6.079 14.613-9.153 25.477-9.153 11.168 0 19.785 3 25.781 9 5.992 6.004 9.066 14.403 9.066 25.207 0 7.875-1.351 14.25-3.972 19.278-2.547 4.949-6.52 9-11.39 11.703-5.02 2.773-11.24 4.199-18.661 4.199-7.566 0-13.785-1.2-18.73-3.602-5.098-2.55-9.293-6.523-12.067-11.402-3.07-5.25-4.644-11.777-4.644-19.652Zm20.68.074c0 6.754 1.273 11.629 3.745 14.629 2.477 2.926 5.922 4.426 10.27 4.426 4.418 0 7.867-1.426 10.34-4.352 2.472-2.926 3.672-8.101 3.672-15.601 0-6.301-1.274-10.954-3.82-13.801-2.551-2.926-5.997-4.352-10.344-4.352a12.57 12.57 0 0 0-10.04 4.426c-2.55 2.926-3.824 7.8-3.824 14.625Zm0 0" fill="#000"/> <path d="m361.64 85.813h20.684v50.558h32.297v16.504h-53.055v-67.063z" fill="#000"/> <path d="m353.19 22.473c-12.903-17.141-40.243-18.301-61.063-2.594-20.824 15.71-27.246 42.336-14.344 59.473 12.903 17.14 40.242 18.3 61.067 2.593 20.82-15.71 27.242-42.336 14.34-59.472z" fill="#fff"/> <g clip-path="url(#a)"> <g clip-path="url(#b)"> <path d="m224.68 42.414 107.6-81.172 74.457 98.906-107.6 81.168z" fill="#fff"/> <g clip-path="url(#c)"> <path d="m353.19 22.473c-12.903-17.141-40.243-18.301-61.063-2.594-20.824 15.71-27.246 42.336-14.344 59.473 12.903 17.14 40.242 18.3 61.067 2.593 20.82-15.71 27.242-42.336 14.34-59.472z" fill="#fff"/> <g clip-path="url(#d)"> <path d="m254.64 49.016 75.349-56.836 46.766 62.125-75.344 56.836z" fill="#fff"/> <g clip-path="url(#e)"> <path transform="matrix(.59845 -.45144 .45098 .59907 33.213 200.07)" d="m483.5 67.901c1e-3 -28.61-28.206-51.803-62.997-51.802-34.798 2e-3 -63.004 23.191-63.002 51.798-1e-3 28.611 28.205 51.804 63 51.806 34.795-6e-3 63-23.195 62.999-51.802z" fill="#fff" stroke="#000" stroke-miterlimit="10" stroke-width="4"/> </g> </g> </g> </g> </g> <g clip-path="url(#f)"> <g clip-path="url(#g)"> <g clip-path="url(#h)"> <g clip-path="url(#i)"> <g clip-path="url(#j)"> <path transform="matrix(.59846 -.45143 .45097 .59907 32.846 200.36)" d="m357.8 16.998h125.9l-2e-3 103.7-125.9 3e-3z" fill="none" stroke="#000" stroke-miterlimit="10" stroke-width="4"/> </g> </g> </g> </g> </g> <g clip-path="url(#k)"> <g clip-path="url(#l)"> <g clip-path="url(#m)"> <g clip-path="url(#n)"> <path transform="matrix(.59845 -.45144 .45098 .59907 33.213 200.07)" d="m483.5 67.901c1e-3 -28.61-28.206-51.803-62.997-51.802-34.798 2e-3 -63.004 23.191-63.002 51.798-1e-3 28.611 28.205 51.804 63 51.806 34.795-6e-3 63-23.195 62.999-51.802z" fill="none" stroke="#000" stroke-miterlimit="10" stroke-width="4"/> <path d="m254.64 49.016 75.349-56.836 46.766 62.125-75.344 56.836z" fill="#fff"/> <g clip-path="url(#o)"> <path transform="matrix(.59845 -.45144 .45098 .59907 33.213 200.07)" d="m483.5 67.901c1e-3 -28.61-28.206-51.803-62.997-51.802-34.798 2e-3 -63.004 23.191-63.002 51.798-1e-3 28.611 28.205 51.804 63 51.806 34.795-6e-3 63-23.195 62.999-51.802z" fill="#fff" stroke="#000" stroke-miterlimit="10" stroke-width="4"/> </g> </g> </g> </g> </g> <g clip-path="url(#p)"> <g clip-path="url(#q)"> <g clip-path="url(#r)"> <g clip-path="url(#s)"> <g clip-path="url(#t)"> <path transform="matrix(.59846 -.45143 .45097 .59907 32.846 200.36)" d="m357.8 16.998h125.9l-2e-3 103.7-125.9 3e-3z" fill="none" stroke="#000" stroke-miterlimit="10" stroke-width="4"/> </g> </g> </g> </g> </g> <g clip-path="url(#u)"> <g clip-path="url(#v)"> <g clip-path="url(#w)"> <g clip-path="url(#x)"> <path transform="matrix(.59845 -.45144 .45098 .59907 33.054 200.3)" d="m330.9-14.197 179.8-3e-3v165.1l-179.8-1e-3z" fill="none" stroke="#000" stroke-miterlimit="10" stroke-width="4"/> </g> </g> </g> </g> <g clip-path="url(#y)"> <g clip-path="url(#z)"> <g clip-path="url(#A)"> <path transform="matrix(.59845 -.45144 .45098 .59907 33.213 200.07)" d="m483.5 67.901c1e-3 -28.61-28.206-51.803-62.997-51.802-34.798 2e-3 -63.004 23.191-63.002 51.798-1e-3 28.611 28.205 51.804 63 51.806 34.795-6e-3 63-23.195 62.999-51.802z" fill="none" stroke="#000" stroke-miterlimit="10" stroke-width="4"/> </g> </g> </g> <g clip-path="url(#B)"> <g clip-path="url(#C)"> <g clip-path="url(#D)"> <path d="m294.426 45.984 7.492-5.254 9.219 13.13a26.11 26.11 0 0 1 3.672 6.824c.523 1.875.375 3.902-.375 5.703a12.222 12.222 0 0 1-4.649 5.476c-2.473 1.723-4.57 2.7-6.367 3-1.723.301-3.523 0-5.172-.75-1.797-.902-3.371-2.175-4.57-3.828l6.445-6a9.024 9.024 0 0 0 1.95 2.176c.523.375 1.12.602 1.796.602.524 0 1.051-.227 1.422-.528.75-.45 1.277-1.347 1.2-2.25-.223-1.273-.747-2.55-1.571-3.523Zm22.48 8.325 6.82-5.403a6.447 6.447 0 0 0 2.77 1.953c1.5.45 3.074.149 4.348-.828.898-.597 1.648-1.422 1.949-2.472.45-1.352-.3-2.852-1.648-3.301-.227-.074-.45-.153-.676-.153-.899-.074-2.473.301-4.797 1.278-3.82 1.574-6.817 2.176-9.067 1.949-2.171-.223-4.195-1.348-5.394-3.227-.899-1.273-1.348-2.773-1.426-4.273 0-1.727.453-3.45 1.426-4.875 1.422-2.027 3.148-3.754 5.246-5.102 3.148-2.175 5.918-3.226 8.316-3.226 2.399 0 4.649 1.125 6.747 3.45l-6.747 5.327c-1.347-1.726-3.894-2.101-5.62-.75l-.223.223c-.75.453-1.274 1.125-1.575 1.953-.226.598-.074 1.273.301 1.8.297.376.75.673 1.274.673.597.078 1.648-.223 3.148-.899 3.746-1.574 6.594-2.476 8.54-2.777 1.652-.297 3.374-.149 4.948.527 1.422.602 2.622 1.649 3.446 2.926a9.687 9.687 0 0 1 1.722 5.176c.075 1.949-.449 3.824-1.496 5.476a18.358 18.358 0 0 1-5.097 5.098c-4.121 2.852-7.493 4.05-10.192 3.602-2.922-.45-5.32-1.95-7.043-4.125Zm0 0" fill="#000"/> </g> </g> </g>
</svg>